<svg height="512pt" viewBox="-120 0 512 512" width="512pt" xmlns="http://www.w3.org/2000/svg"><path d="m239.96875 504.484375h-208.40625c-13.28125 0-24.046875-10.765625-24.046875-24.046875v-448.875c0-13.28125 10.765625-24.046875 24.046875-24.046875h208.40625c13.28125 0 24.046875 10.765625 24.046875 24.046875v448.875c0 13.28125-10.765625 24.046875-24.046875 24.046875zm0 0" fill="#788578"/><path d="m47.59375 480.4375v-448.875c0-13.28125 10.765625-24.046875 24.046875-24.046875h-40.078125c-13.28125 0-24.046875 10.765625-24.046875 24.046875v448.875c0 13.28125 10.765625 24.046875 24.046875 24.046875h40.078125c-13.28125 0-24.046875-10.765625-24.046875-24.046875zm0 0" fill="#576657"/><path d="m7.515625 39.578125h256.5v416.8125h-256.5zm0 0" fill="#eef0ee"/><path d="m7.515625 39.578125h40.078125v416.8125h-40.078125zm0 0" fill="#cdd1cd"/><path d="m135.765625 119.734375c-64.125-40.078125-96.1875 24.046875-80.15625 64.125 14.796875 36.992187 80.15625 72.140625 80.15625 72.140625s65.359375-35.148438 80.15625-72.140625c16.03125-40.078125-16.03125-104.203125-80.15625-64.125zm0 0" fill="#ff9d9a"/><path d="m91.601562 175.84375c-9.058593-22.652344-2.753906-52.980469 16.019532-67.839844-44.976563-8.511718-65.488282 42.164063-52.011719 75.855469 14.796875 36.992187 80.15625 72.140625 80.15625 72.140625s10.589844-5.695312 24.203125-14.910156c-19.53125-12.019532-57.523438-38.136719-68.367188-65.246094zm0 0" fill="#ff5b57"/><path d="m87.671875 288.0625h96.1875v32.0625h-96.1875zm0 0" fill="#8fd0de"/><path d="m103.703125 304.09375v-16.03125h-16.03125v32.0625h96.1875v-16.03125zm0 0" fill="#44b0c8"/><path d="m239.96875 0h-208.40625c-17.402344 0-31.5625 14.160156-31.5625 31.5625v448.875c0 17.402344 14.160156 31.5625 31.5625 31.5625h208.40625c17.402344 0 31.5625-14.160156 31.5625-31.5625v-448.875c0-17.402344-14.160156-31.5625-31.5625-31.5625zm-208.40625 15.03125h208.40625c9.117188 0 16.53125 7.414062 16.53125 16.53125v.5h-32.230469c-4.148437 0-7.511719 3.363281-7.511719 7.515625 0 4.148437 3.363282 7.515625 7.511719 7.515625h32.230469v401.78125h-241.46875v-401.78125h173.503906c4.152344 0 7.515625-3.367188 7.515625-7.515625 0-4.152344-3.363281-7.515625-7.515625-7.515625h-173.503906v-.5c0-9.117188 7.414062-16.53125 16.53125-16.53125zm208.40625 481.9375h-208.40625c-9.117188 0-16.53125-7.414062-16.53125-16.53125v-16.53125h241.46875v16.53125c0 9.117188-7.414062 16.53125-16.53125 16.53125zm0 0"/><path d="m151.796875 472.921875h-32.0625c-4.152344 0-7.515625 3.367187-7.515625 7.515625 0 4.152344 3.363281 7.515625 7.515625 7.515625h32.0625c4.152344 0 7.515625-3.363281 7.515625-7.515625 0-4.148438-3.363281-7.515625-7.515625-7.515625zm0 0"/><path d="m135.765625 110.972656c-35.910156-20.625-59.070313-9.015625-69.867187.011719-19.976563 16.699219-27.558594 49.9375-17.265626 75.667969 15.632813 39.074218 80.808594 74.480468 83.574219 75.964844 2.199219 1.183593 4.917969 1.1875 7.117188 0 2.765625-1.484376 67.945312-36.890626 83.574219-75.964844 10.292968-25.730469 2.707031-58.96875-17.265626-75.667969-10.796874-9.027344-33.957031-20.636719-69.867187-.011719zm60.226563 11.539063c15.03125 12.566406 20.839843 38.835937 12.953124 58.554687-11.710937 29.277344-59.65625 58.519532-73.179687 66.308594-13.523437-7.789062-61.46875-37.03125-73.179687-66.308594-7.886719-19.71875-2.078126-45.988281 12.953124-58.554687 6.304688-5.269531 13.84375-7.890625 22.28125-7.890625 10.207032 0 21.730469 3.839844 33.960938 11.484375 2.4375 1.523437 5.53125 1.523437 7.964844 0 22.339844-13.960938 42.316406-15.238281 56.246094-3.59375zm0 0"/><path d="m128.25 143.78125v8.847656c-9.101562 1.660156-16.03125 9.632813-16.03125 19.207032 0 10.773437 8.765625 19.539062 19.539062 19.539062h8.015626c2.484374 0 4.507812 2.023438 4.507812 4.507812 0 2.484376-2.023438 4.507813-4.507812 4.507813h-20.039063c-4.152344 0-7.515625 3.363281-7.515625 7.515625s3.363281 7.515625 7.515625 7.515625h8.515625v8.515625c0 4.152344 3.363281 7.515625 7.515625 7.515625s7.515625-3.363281 7.515625-7.515625v-8.847656c9.101562-1.660156 16.03125-9.632813 16.03125-19.207032 0-10.773437-8.765625-19.539062-19.539062-19.539062h-8.015626c-2.484374 0-4.507812-2.023438-4.507812-4.507812 0-2.484376 2.023438-4.507813 4.507812-4.507813h20.039063c4.152344 0 7.515625-3.363281 7.515625-7.515625s-3.363281-7.515625-7.515625-7.515625h-8.515625v-8.515625c0-4.152344-3.363281-7.515625-7.515625-7.515625s-7.515625 3.363281-7.515625 7.515625zm0 0"/><path d="m183.859375 280.546875h-96.1875c-4.152344 0-7.515625 3.363281-7.515625 7.515625v32.0625c0 4.152344 3.363281 7.515625 7.515625 7.515625h96.1875c4.152344 0 7.515625-3.363281 7.515625-7.515625v-32.0625c0-4.152344-3.363281-7.515625-7.515625-7.515625zm-7.515625 32.0625h-81.15625v-17.03125h81.15625zm0 0"/><path d="m87.671875 359.703125h32.0625c4.152344 0 7.515625-3.363281 7.515625-7.515625s-3.363281-7.515625-7.515625-7.515625h-32.0625c-4.152344 0-7.515625 3.363281-7.515625 7.515625s3.363281 7.515625 7.515625 7.515625zm0 0"/><path d="m183.859375 344.671875h-40.078125c-4.152344 0-7.515625 3.363281-7.515625 7.515625s3.363281 7.515625 7.515625 7.515625h40.078125c4.152344 0 7.515625-3.363281 7.515625-7.515625s-3.363281-7.515625-7.515625-7.515625zm0 0"/><path d="m183.859375 376.734375h-96.1875c-4.152344 0-7.515625 3.363281-7.515625 7.515625s3.363281 7.515625 7.515625 7.515625h96.1875c4.152344 0 7.515625-3.363281 7.515625-7.515625s-3.363281-7.515625-7.515625-7.515625zm0 0"/></svg>